<svg width="44" height="40" viewBox="0 0 44 40" fill="none" xmlns="http://www.w3.org/2000/svg">
<path d="M29.6666 28.6667L37.3333 21L39.3333 14.3333L29.6666 24V28.6667Z" fill="white"/>
<path d="M2.33335 6.66667L19.6667 24V28.6667L22.0001 26.3333L24.6667 29V33.6667L27.0001 31.3333L31.8467 36.18L33.1667 32.8333L0.333351 0L2.33335 6.66667Z" fill="white"/>
<path d="M6.66669 21L14.6667 29L10.8334 32.8333L12.1534 36.18L17.0001 31.3333L19.6667 34L13.6667 40H18.3334L22.0001 36.3333L25.6667 40H30.3334L4.66669 14.3333L6.66669 21Z" fill="white"/>
<path d="M24.6666 19V23.6667L41.6667 6.66667L43.6667 0L24.6666 19Z" fill="white"/>
</svg>
